# xmcd
#
# Track frame offsets: 
#        150
#        51522
#        113600
#        130745
#        173597
#
# Disc length: 2697 seconds
#
# Revision: 5
# Processed by: cddbd v1.5.2PL0 Copyright (c) Steve Scherf et al.
# Submitted via: ExactAudioCopy v1.0b3
#
DISCID=3a0a8705
DTITLE=Schubert, Franz - Streichquartett Nr. 14 'Tod und das Mädchen' 
DTITLE=& 12 'Quartettsatz' (Tokyo String Quartet)
DYEAR=1984
DGENRE=Streichquartett
TTITLE0=Streichquartett Nr. 14 d-moll D.810 'Der Tod und das Mädchen' 
TTITLE0=1. Allegro
TTITLE1=Streichquartett Nr. 14 d-moll D.810 'Der Tod und das Mädchen' 
TTITLE1=2. Andante con moto
TTITLE2=Streichquartett Nr. 14 d-moll D.810 'Der Tod und das Mädchen' 
TTITLE2=3. Scherzo. Allegro molto
TTITLE3=Streichquartett Nr. 14 d-moll D.810 'Der Tod und das Mädchen' 
TTITLE3=4. Presto
TTITLE4=Quartettsatz Nr. 12 c-moll D.703 - Allegro
EXTD=
EXTT0=
EXTT1=
EXTT2=
EXTT3=
EXTT4=
PLAYORDER=
